<svg xmlns="http://www.w3.org/2000/svg"  viewBox="0 0 22 26" fill="none">
  <path d="M15.3795 20.4859L12.8643 24.157C12.4324 24.7795 11.4162 24.5 11.4162 23.7505L11.4035 16.5862C11.4035 15.7605 10.7049 15.1 9.8411 15.0873L4.7219 15.0238C4.09946 15.0111 3.73109 14.3632 4.07406 13.8678L6.14461 10.8573" stroke="#1B4D1A" stroke-width="1.5" stroke-linecap="round" stroke-linejoin="round"/>
  <path d="M8.29136 7.69429L12.6357 1.34294C13.0676 0.720503 14.0838 0.999972 14.0838 1.74943L14.0965 8.91377C14.0965 9.73945 14.7951 10.4 15.6589 10.4127L20.7781 10.4762C21.4005 10.4889 21.7689 11.1367 21.4259 11.6321L17.4373 17.45" stroke="#1B4D1A" stroke-width="1.5" stroke-linecap="round" stroke-linejoin="round"/>
  <path d="M1 1L24.5 24.5" stroke="#1B4D1A" stroke-width="1.5" stroke-linecap="round" stroke-linejoin="round"/>
</svg>