<svg xmlns="http://www.w3.org/2000/svg"  viewBox="0 0 28 28" fill="none">
  <path d="M20.5216 10.0473C19.9427 10.0473 19.543 10.0473 19.543 10.0473C20.3424 7.59381 21.2246 3.63781 18.4816 2.06646C17.7373 1.63916 15.5043 0.963751 15.1873 2.23186C14.7462 3.96862 14.3189 5.70538 13.2851 7.23538C12.4306 8.4897 11.1349 9.88192 9.52217 10.0473C9.52217 10.1162 9.52217 10.1989 9.52217 10.1989V22.9489C9.52217 22.9489 9.52217 23.2935 9.52217 23.6381C9.68758 23.6932 9.85298 23.7484 9.85298 23.7484L12.7476 24.6995C13.6987 25.0165 14.6911 25.1819 15.6973 25.1819H22.7684C24.1743 25.1819 25.3184 24.0516 25.3184 22.6594C25.3184 22.3286 25.2495 22.0254 25.1254 21.7359C26.2143 21.4327 27 20.454 27 19.2962C27 18.6484 26.7657 18.0557 26.3522 17.6008C26.7519 17.1597 27 16.567 27 15.9329C27 15.2851 26.7657 14.6924 26.3522 14.2376C26.7519 13.7965 27 13.2037 27 12.5697C27 11.1775 25.856 10.0473 24.4638 10.0473C24.4638 10.0473 21.9551 10.0473 20.5216 10.0473Z" stroke="#1B4D1A" stroke-width="1.5" stroke-linecap="round" stroke-linejoin="round"/>
  <path d="M1.5 7.86945H6.31054C8.07486 7.86945 9.50838 9.30297 9.50838 11.0673V23.8035C9.50838 25.5678 8.07486 27.0013 6.31054 27.0013H1.5V7.86945Z" stroke="#1B4D1A" stroke-width="1.5" stroke-linecap="round" stroke-linejoin="round"/>
  <path d="M5.5111 23.5278C6.10488 23.5278 6.58623 23.0465 6.58623 22.4527C6.58623 21.8589 6.10488 21.3775 5.5111 21.3775C4.91731 21.3775 4.43595 21.8589 4.43595 22.4527C4.43595 23.0465 4.91731 23.5278 5.5111 23.5278Z" fill="black"/>
</svg>