<svg xmlns="http://www.w3.org/2000/svg"  viewBox="0 0 32 32" fill="none">
  <path d="M18.5064 15.1129V5.54405C18.4795 5.07675 18.2696 4.63886 17.922 4.32533C17.5745 4.0118 17.1173 3.8479 16.6498 3.86918C16.18 3.84437 15.7195 4.00668 15.3691 4.32057C15.0187 4.63447 14.8069 5.07439 14.7801 5.54405V15.1129" stroke="#1B4D1A" stroke-width="1.5" stroke-linecap="round" stroke-linejoin="round"/>
  <path d="M18.5063 7.8032C18.5454 7.33592 18.7586 6.90036 19.1037 6.5829C19.4488 6.26543 19.9006 6.08923 20.3695 6.08923C20.8384 6.08923 21.2902 6.26543 21.6353 6.5829C21.9804 6.90036 22.1936 7.33592 22.2326 7.8032V15.1129" stroke="#1B4D1A" stroke-width="1.5" stroke-linecap="round" stroke-linejoin="round"/>
  <path d="M26.0368 19.6182V10.0493C25.9827 9.59138 25.7625 9.16924 25.4179 8.86292C25.0733 8.5566 24.6282 8.38739 24.1671 8.38739C23.7061 8.38739 23.261 8.5566 22.9164 8.86292C22.5718 9.16924 22.3516 9.59138 22.2975 10.0493" stroke="#1B4D1A" stroke-width="1.5" stroke-linecap="round" stroke-linejoin="round"/>
  <path d="M14.7801 7.80315C14.7684 7.56946 14.7108 7.34036 14.6105 7.12898C14.5102 6.9176 14.3692 6.72808 14.1955 6.57129C14.0218 6.4145 13.8189 6.29352 13.5984 6.21527C13.3779 6.13702 13.1441 6.10305 12.9104 6.11529C12.4407 6.09411 11.9817 6.25977 11.6338 6.57607C11.2859 6.89236 11.0773 7.33354 11.0538 7.80315V17.372" stroke="#1B4D1A" stroke-width="1.5" stroke-linecap="round" stroke-linejoin="round"/>
  <path d="M26.0368 19.6182C26.0853 21.6793 25.3776 23.6868 24.0474 25.2619C22.7171 26.837 20.8564 27.8706 18.8162 28.1678C16.7761 28.4649 14.6978 28.005 12.9735 26.8748C11.2493 25.7447 9.99832 24.0224 9.45684 22.0331C9.20664 21.2862 8.85261 20.5781 8.40517 19.9298L5.60073 15.7231C5.47428 15.5341 5.39003 15.3201 5.35369 15.0956C5.31735 14.871 5.32979 14.6413 5.39015 14.4221C5.45051 14.2028 5.55738 13.9991 5.7035 13.8248C5.84961 13.6505 6.03154 13.5098 6.23692 13.4121C6.66601 13.1738 7.16776 13.1016 7.64661 13.2094C8.12547 13.3171 8.54796 13.5972 8.83363 13.9963L11.0668 17.385" stroke="#1B4D1A" stroke-width="1.5" stroke-linecap="round" stroke-linejoin="round"/>
</svg>