<svg xmlns="http://www.w3.org/2000/svg"  viewBox="0 0 20 23" fill="none">
<path d="M1.05264 1.16669H18.4476" stroke="#1B4D1A" stroke-width="1.5" stroke-linecap="round" stroke-linejoin="round"/>
<path d="M1.05264 21.4885H18.4476" stroke="#1B4D1A" stroke-width="1.5" stroke-linecap="round" stroke-linejoin="round"/>
<path d="M15.242 6.34055L11.5163 9.72386C10.5485 10.6026 8.97596 10.6026 7.99613 9.72386L4.27036 6.34055C3.79859 5.91214 3.54456 5.34092 3.54456 4.74774V3.42956C3.54456 2.17729 4.65744 1.16669 6.03646 1.16669H13.5001C14.8791 1.16669 15.992 2.17729 15.992 3.42956V4.74774C15.9678 5.34092 15.7017 5.92313 15.242 6.34055Z" stroke="#1B4D1A" stroke-width="1.5" stroke-linecap="round" stroke-linejoin="round"/>
<path d="M15.9678 19.2258C15.9678 20.478 14.8549 21.4886 13.4759 21.4886H6.02435C4.64533 21.4886 3.53244 20.478 3.53244 19.2258H15.9678Z" fill="#1B4D1A" stroke="#1B4D1A" stroke-width="1.5" stroke-linecap="round" stroke-linejoin="round"/>
<path d="M15.9678 17.9075V19.2257H3.53244V17.9075C3.53244 17.3143 3.79857 16.7321 4.25825 16.3147L7.99611 12.9204C8.96384 12.0416 10.5364 12.0416 11.5041 12.9204L15.242 16.3147C15.7017 16.7321 15.9678 17.3143 15.9678 17.9075Z" stroke="#1B4D1A" stroke-width="1.5" stroke-linecap="round" stroke-linejoin="round"/>
<path d="M7.25824 9.06476H12.2421" stroke="#1B4D1A" stroke-width="1.5" stroke-linecap="round" stroke-linejoin="round"/>
<path d="M9.75011 16.6662C9.50818 16.6662 9.27835 16.5784 9.10899 16.4246C8.93964 16.2708 8.84286 16.0621 8.84286 15.8424C8.84286 15.7325 8.86706 15.6337 8.91544 15.5238C8.96383 15.425 9.02432 15.3371 9.10899 15.2602C9.35093 15.0295 9.7622 14.9636 10.1009 15.0844C10.2098 15.1284 10.3066 15.1833 10.3912 15.2602C10.4759 15.3371 10.5364 15.425 10.5848 15.5238C10.6332 15.6337 10.6574 15.7325 10.6574 15.8424C10.6574 16.0621 10.5606 16.2708 10.3912 16.4246C10.2219 16.5784 9.99205 16.6662 9.75011 16.6662Z" fill="#1B4D1A"/>
</svg>