<svg xmlns="http://www.w3.org/2000/svg" width="32" height="31" viewBox="0 0 32 31" fill="none">
  <path d="M16 0C7.4595 0 0.5 6.9595 0.5 15.5C0.5 24.0405 7.4595 31 16 31C24.5405 31 31.5 24.0405 31.5 15.5C31.5 6.9595 24.5405 0 16 0ZM15.69 7.39349C18.449 7.39349 20.681 9.6255 20.681 12.3845C20.681 15.128 18.449 17.3755 15.69 17.3755C12.9465 17.3755 10.7145 15.128 10.7145 12.3845C10.7145 9.6255 12.9465 7.39349 15.69 7.39349ZM25.1915 24.924C24.494 25.6215 23.7035 26.226 22.8665 26.7375C20.867 27.9775 18.511 28.675 16 28.675C13.489 28.675 11.133 27.9775 9.13351 26.7375C8.29651 26.226 7.50601 25.6215 6.80851 24.924V24.6295C6.80851 21.452 9.397 18.8635 12.559 18.8635H19.441C22.603 18.8635 25.1915 21.452 25.1915 24.6295V24.924Z" fill="#16291E"/>
</svg>